<?xml version="1.0" encoding="UTF-8"?>
<!DOCTYPE svg PUBLIC "-//W3C//DTD SVG 1.1//EN" "http://www.w3.org/Graphics/SVG/1.1/DTD/svg11.dtd">
<svg version="1.1" xmlns="http://www.w3.org/2000/svg" xmlns:xlink="http://www.w3.org/1999/xlink" x="0" y="0" width="167.907" height="197.565" viewBox="0, 0, 167.907, 197.565">
  <defs>
    <pattern id="Pattern_1" patternUnits="userSpaceOnUse" x="123.046" y="170.694" width="40" height="40" patternTransform="matrix(0.5, 0, 0, 0.5, 0, 0)">
      <g transform="translate(-0, -0)">
        <path d="M0,0 L40,0 L40,40 L0,40 L0,0 z" fill="#CEE094"/>
        <path d="M0,20 L20,20 L20,0 L0,20 z" fill="#004068"/>
        <path d="M40,0 L20,0 L20,20 L40,0 z" fill="#2B8185"/>
        <path d="M20,20 L40,20 L40,0 L20,20 z" fill="#6BB890"/>
        <path d="M20,20 L0,20 L0,40 L20,20 z" fill="#2B8185"/>
        <path d="M0,40 L20,40 L20,20 L0,40 z" fill="#6BB890"/>
        <path d="M20,40 L40,40 L40,20 L20,40 z" fill="#004068"/>
      </g>
    </pattern>
  </defs>
  <g id="Layer_1" transform="translate(-118.046, -120.435)">
    <path d="M122.283,254.694 L281.904,254.694 L281.904,318 L122.283,318 L122.283,254.694 z" fill="#000000"/>
    <path d="M122.187,120.435 L282,120.435 L282,254.694 L122.187,254.694 L122.187,120.435 z" fill="#FFFFFF" fill-opacity="0.604"/>
    <g>
      <path d="M232.953,170.694 C232.953,170.694 281.078,190.299 280.953,210.694 C280.819,232.689 280.953,254.694 280.953,254.694 L123.229,254.694 C123.229,254.694 122.819,246.689 123.229,210.694 C123.482,188.457 172.953,170.694 172.953,170.694 L232.953,170.694 z" fill="url(#Pattern_1)"/>
      <path d="M232.953,170.694 C232.953,170.694 281.078,190.299 280.953,210.694 C280.819,232.689 280.953,254.694 280.953,254.694 L123.229,254.694 C123.229,254.694 122.819,246.689 123.229,210.694 C123.482,188.457 172.953,170.694 172.953,170.694 L232.953,170.694 z" fill-opacity="0" stroke="#000000" stroke-width="2"/>
    </g>
    <g>
      <path d="M202.896,234.76 C199.582,234.76 196.896,232.189 196.896,229.018 C196.896,225.847 199.582,223.276 202.896,223.276 C206.209,223.276 208.896,225.847 208.896,229.018 C208.896,232.189 206.209,234.76 202.896,234.76 z" fill="#FFFFFF"/>
      <path d="M201.396,227.26 L205.396,231.648" fill-opacity="0" stroke="#000000" stroke-width="1"/>
      <path d="M205.396,227.26 L201.396,231.648" fill-opacity="0" stroke="#000000" stroke-width="1"/>
    </g>
    <g>
      <g>
        <path d="M193.001,141.981 C193.001,141.981 182.186,196.73 182.186,196.73 C182.186,196.73 170.68,202.882 163.261,201.027 C152.446,198.324 133.521,173.991 136.225,168.584 C138.928,163.176 152.446,136.574 168.668,133.87 C184.89,131.167 193.001,141.981 193.001,141.981 z" fill="#C5C5C5"/>
        <path d="M193.001,141.981 C193.001,141.981 182.186,196.73 182.186,196.73 C182.186,196.73 170.68,202.882 163.261,201.027 C152.446,198.324 133.521,173.991 136.225,168.584 C138.928,163.176 152.446,136.574 168.668,133.87 C184.89,131.167 193.001,141.981 193.001,141.981 z" fill-opacity="0" stroke="#000000" stroke-width="2"/>
      </g>
      <g>
        <path d="M211.665,141.981 C211.665,141.981 222.48,196.73 222.48,196.73 C222.48,196.73 233.987,202.882 241.406,201.027 C252.22,198.324 271.146,173.991 268.442,168.584 C265.739,163.176 252.22,136.574 235.998,133.87 C219.776,131.167 211.665,141.981 211.665,141.981 z" fill="#C5C5C5"/>
        <path d="M211.665,141.981 C211.665,141.981 222.48,196.73 222.48,196.73 C222.48,196.73 233.987,202.882 241.406,201.027 C252.22,198.324 271.146,173.991 268.442,168.584 C265.739,163.176 252.22,136.574 235.998,133.87 C219.776,131.167 211.665,141.981 211.665,141.981 z" fill-opacity="0" stroke="#000000" stroke-width="2"/>
      </g>
      <g>
        <path d="M217.073,199.757 C217.073,199.757 237.164,215.701 237.164,215.701 C237.164,215.701 231.28,196.296 231.28,196.296 C231.28,196.296 217.073,199.757 217.073,199.757 z" fill="#FFFFFF"/>
        <path d="M217.073,199.757 C217.073,199.757 237.164,215.701 237.164,215.701 C237.164,215.701 231.28,196.296 231.28,196.296 C231.28,196.296 217.073,199.757 217.073,199.757 z" fill-opacity="0" stroke="#000000" stroke-width="2" stroke-linecap="round" stroke-linejoin="round"/>
      </g>
      <g>
        <path d="M188.773,199.757 C188.773,199.757 168.681,215.701 168.681,215.701 C168.681,215.701 174.566,196.296 174.566,196.296 C174.566,196.296 188.773,199.757 188.773,199.757 z" fill="#FFFFFF"/>
        <path d="M188.773,199.757 C188.773,199.757 168.681,215.701 168.681,215.701 C168.681,215.701 174.566,196.296 174.566,196.296 C174.566,196.296 188.773,199.757 188.773,199.757 z" fill-opacity="0" stroke="#000000" stroke-width="2" stroke-linecap="round" stroke-linejoin="round"/>
      </g>
      <g>
        <path d="M154.889,184.809 C171.111,119.917 244.109,119.917 252.22,184.809 C211.665,192.92 211.665,249.697 211.665,249.697 C211.665,249.697 195.444,249.697 195.444,249.697 C195.444,249.697 195.444,192.92 154.889,184.809 z" fill="#D3D3D3"/>
        <path d="M154.889,184.809 C171.111,119.917 244.109,119.917 252.22,184.809 C211.665,192.92 211.665,249.697 211.665,249.697 C211.665,249.697 195.444,249.697 195.444,249.697 C195.444,249.697 195.444,192.92 154.889,184.809 z" fill-opacity="0" stroke="#000000" stroke-width="2" stroke-linecap="round" stroke-linejoin="round"/>
      </g>
      <g>
        <path d="M195.444,171.287 L195.444,171.287 L195.444,179.398 L195.444,179.398 L195.444,171.287 z" fill="#FFFFFF"/>
        <path d="M195.444,171.287 L195.444,171.287 L195.444,179.398 L195.444,179.398 L195.444,171.287 z" fill-opacity="0" stroke="#000000" stroke-width="2" stroke-linecap="round" stroke-linejoin="round"/>
      </g>
      <g>
        <path d="M214.369,171.287 L214.369,171.287 L214.369,179.398 L214.369,179.398 L214.369,171.287 z" fill="#FFFFFF"/>
        <path d="M214.369,171.287 L214.369,171.287 L214.369,179.398 L214.369,179.398 L214.369,171.287 z" fill-opacity="0" stroke="#000000" stroke-width="2" stroke-linecap="round" stroke-linejoin="round"/>
      </g>
    </g>
    <text transform="matrix(1, 0, 0, 1, 201.833, 281.644)">
      <tspan x="-70.203" y="7.249" font-family="PTSans-NarrowBold" font-size="42" fill="#FFFFFF">Irrelefant </tspan>
      <tspan x="-42.18" y="31.749" font-family="PTSans-NarrowBold" font-size="24" fill="#FFFFFF">Industries</tspan>
    </text>
  </g>
</svg>
