<?xml version="1.0" encoding="UTF-8"?>
<!DOCTYPE svg PUBLIC "-//W3C//DTD SVG 1.1//EN" "http://www.w3.org/Graphics/SVG/1.1/DTD/svg11.dtd">
<svg version="1.1" xmlns="http://www.w3.org/2000/svg" xmlns:xlink="http://www.w3.org/1999/xlink" x="0" y="0" width="167.907" height="197.565" viewBox="0, 0, 167.907, 197.565">
  <defs>
    <pattern id="Pattern_1" patternUnits="userSpaceOnUse" x="123.046" y="170.326" width="40" height="40" patternTransform="matrix(0.5, 0, 0, 0.5, 0, 0)">
      <g transform="translate(-0, -0)">
        <path d="M0,0 L40,0 L40,40 L0,40 L0,0 z" fill="#CEE094"/>
        <path d="M0,20 L20,20 L20,0 L0,20 z" fill="#004068"/>
        <path d="M40,0 L20,0 L20,20 L40,0 z" fill="#2B8185"/>
        <path d="M20,20 L40,20 L40,0 L20,20 z" fill="#6BB890"/>
        <path d="M20,20 L0,20 L0,40 L20,20 z" fill="#2B8185"/>
        <path d="M0,40 L20,40 L20,20 L0,40 z" fill="#6BB890"/>
        <path d="M20,40 L40,40 L40,20 L20,40 z" fill="#004068"/>
      </g>
    </pattern>
  </defs>
  <g id="Layer_1" transform="translate(-118.046, -120.066)">
    <path d="M122.283,254.326 L281.904,254.326 L281.904,317.631 L122.283,317.631 L122.283,254.326 z" fill="#000000"/>
    <path d="M122.187,120.066 L282,120.066 L282,254.326 L122.187,254.326 L122.187,120.066 z" fill="#FFFFFF" fill-opacity="0.604"/>
    <g>
      <path d="M232.953,170.326 C232.953,170.326 281.078,189.93 280.953,210.326 C280.819,232.32 280.953,254.326 280.953,254.326 L123.229,254.326 C123.229,254.326 122.819,246.32 123.229,210.326 C123.482,188.088 172.953,170.326 172.953,170.326 L232.953,170.326 z" fill="url(#Pattern_1)"/>
      <path d="M232.953,170.326 C232.953,170.326 281.078,189.93 280.953,210.326 C280.819,232.32 280.953,254.326 280.953,254.326 L123.229,254.326 C123.229,254.326 122.819,246.32 123.229,210.326 C123.482,188.088 172.953,170.326 172.953,170.326 L232.953,170.326 z" fill-opacity="0" stroke="#000000" stroke-width="2"/>
    </g>
    <g>
      <path d="M202.896,234.391 C199.582,234.391 196.896,231.821 196.896,228.649 C196.896,225.478 199.582,222.907 202.896,222.907 C206.209,222.907 208.896,225.478 208.896,228.649 C208.896,231.821 206.209,234.391 202.896,234.391 z" fill="#FFFFFF"/>
      <path d="M201.396,226.891 L205.396,231.28" fill-opacity="0" stroke="#000000" stroke-width="1"/>
      <path d="M205.396,226.891 L201.396,231.28" fill-opacity="0" stroke="#000000" stroke-width="1"/>
    </g>
    <g>
      <g>
        <path d="M193.001,141.612 C193.001,141.612 182.186,196.361 182.186,196.361 C182.186,196.361 170.68,202.513 163.261,200.659 C152.446,197.955 133.521,173.622 136.225,168.215 C138.928,162.808 152.446,136.205 168.668,133.501 C184.89,130.798 193.001,141.612 193.001,141.612 z" fill="#C5C5C5"/>
        <path d="M193.001,141.612 C193.001,141.612 182.186,196.361 182.186,196.361 C182.186,196.361 170.68,202.513 163.261,200.659 C152.446,197.955 133.521,173.622 136.225,168.215 C138.928,162.808 152.446,136.205 168.668,133.501 C184.89,130.798 193.001,141.612 193.001,141.612 z" fill-opacity="0" stroke="#000000" stroke-width="2"/>
      </g>
      <g>
        <path d="M211.665,141.612 C211.665,141.612 222.48,196.361 222.48,196.361 C222.48,196.361 233.987,202.513 241.406,200.659 C252.22,197.955 271.146,173.622 268.442,168.215 C265.739,162.808 252.22,136.205 235.998,133.501 C219.776,130.798 211.665,141.612 211.665,141.612 z" fill="#C5C5C5"/>
        <path d="M211.665,141.612 C211.665,141.612 222.48,196.361 222.48,196.361 C222.48,196.361 233.987,202.513 241.406,200.659 C252.22,197.955 271.146,173.622 268.442,168.215 C265.739,162.808 252.22,136.205 235.998,133.501 C219.776,130.798 211.665,141.612 211.665,141.612 z" fill-opacity="0" stroke="#000000" stroke-width="2"/>
      </g>
      <g>
        <path d="M217.073,199.388 C217.073,199.388 237.164,215.332 237.164,215.332 C237.164,215.332 231.28,195.927 231.28,195.927 C231.28,195.927 217.073,199.388 217.073,199.388 z" fill="#FFFFFF"/>
        <path d="M217.073,199.388 C217.073,199.388 237.164,215.332 237.164,215.332 C237.164,215.332 231.28,195.927 231.28,195.927 C231.28,195.927 217.073,199.388 217.073,199.388 z" fill-opacity="0" stroke="#000000" stroke-width="2" stroke-linecap="round" stroke-linejoin="round"/>
      </g>
      <g>
        <path d="M188.773,199.388 C188.773,199.388 168.681,215.332 168.681,215.332 C168.681,215.332 174.566,195.927 174.566,195.927 C174.566,195.927 188.773,199.388 188.773,199.388 z" fill="#FFFFFF"/>
        <path d="M188.773,199.388 C188.773,199.388 168.681,215.332 168.681,215.332 C168.681,215.332 174.566,195.927 174.566,195.927 C174.566,195.927 188.773,199.388 188.773,199.388 z" fill-opacity="0" stroke="#000000" stroke-width="2" stroke-linecap="round" stroke-linejoin="round"/>
      </g>
      <g>
        <path d="M154.889,184.441 C171.111,119.548 244.109,119.548 252.22,184.441 C211.665,192.552 211.665,249.328 211.665,249.328 C211.665,249.328 195.444,249.328 195.444,249.328 C195.444,249.328 195.444,192.552 154.889,184.441 z" fill="#D3D3D3"/>
        <path d="M154.889,184.441 C171.111,119.548 244.109,119.548 252.22,184.441 C211.665,192.552 211.665,249.328 211.665,249.328 C211.665,249.328 195.444,249.328 195.444,249.328 C195.444,249.328 195.444,192.552 154.889,184.441 z" fill-opacity="0" stroke="#000000" stroke-width="2" stroke-linecap="round" stroke-linejoin="round"/>
      </g>
      <g>
        <path d="M195.444,170.919 L195.444,170.919 L195.444,179.03 L195.444,179.03 L195.444,170.919 z" fill="#FFFFFF"/>
        <path d="M195.444,170.919 L195.444,170.919 L195.444,179.03 L195.444,179.03 L195.444,170.919 z" fill-opacity="0" stroke="#000000" stroke-width="2" stroke-linecap="round" stroke-linejoin="round"/>
      </g>
      <g>
        <path d="M214.369,170.919 L214.369,170.919 L214.369,179.03 L214.369,179.03 L214.369,170.919 z" fill="#FFFFFF"/>
        <path d="M214.369,170.919 L214.369,170.919 L214.369,179.03 L214.369,179.03 L214.369,170.919 z" fill-opacity="0" stroke="#000000" stroke-width="2" stroke-linecap="round" stroke-linejoin="round"/>
      </g>
    </g>
    <path d="M133.982,259.124 L139.274,259.124 L139.274,288.524 L133.982,288.524 z" fill="#FFFFFF"/>
    <path d="M153.344,272.48 Q152.336,272.102 151.496,272.102 Q150.362,272.102 149.543,272.732 Q148.724,273.362 148.43,274.496 L148.43,288.524 L143.432,288.524 L143.432,267.524 L147.254,267.524 L147.842,270.044 L148.01,270.044 Q148.556,268.658 149.585,267.881 Q150.614,267.104 151.958,267.104 Q152.966,267.104 153.932,267.524 z" fill="#FFFFFF"/>
    <path d="M165.65,272.48 Q164.642,272.102 163.802,272.102 Q162.668,272.102 161.849,272.732 Q161.03,273.362 160.736,274.496 L160.736,288.524 L155.738,288.524 L155.738,267.524 L159.56,267.524 L160.148,270.044 L160.316,270.044 Q160.862,268.658 161.891,267.881 Q162.92,267.104 164.264,267.104 Q165.272,267.104 166.238,267.524 z" fill="#FFFFFF"/>
    <path d="M182.24,286.97 Q181.19,287.894 179.384,288.482 Q177.578,289.07 175.604,289.07 Q173.42,289.07 171.845,288.314 Q170.27,287.558 169.262,286.13 Q168.254,284.702 167.771,282.665 Q167.288,280.628 167.288,278.024 Q167.288,272.354 169.535,269.645 Q171.782,266.936 175.772,266.936 Q177.116,266.936 178.376,267.335 Q179.636,267.734 180.623,268.679 Q181.61,269.624 182.219,271.199 Q182.828,272.774 182.828,275.168 Q182.828,276.092 182.723,277.142 Q182.618,278.192 182.408,279.41 L172.202,279.41 Q172.286,282.014 173.294,283.4 Q174.302,284.786 176.528,284.786 Q177.872,284.786 178.985,284.366 Q180.098,283.946 180.686,283.484 z M175.688,271.22 Q174.092,271.22 173.294,272.501 Q172.496,273.782 172.37,276.092 L178.166,276.092 Q178.292,273.698 177.662,272.459 Q177.032,271.22 175.688,271.22 z" fill="#FFFFFF"/>
    <path d="M191.102,281.72 Q191.102,283.19 191.396,283.82 Q191.69,284.45 192.362,284.45 Q192.74,284.45 193.139,284.366 Q193.538,284.282 194.042,284.072 L194.504,288.104 Q194,288.44 192.782,288.734 Q191.564,289.028 190.304,289.028 Q188.204,289.028 187.154,287.978 Q186.104,286.928 186.104,284.408 L186.104,259.124 L191.102,259.124 z" fill="#FFFFFF"/>
    <path d="M210.422,286.97 Q209.372,287.894 207.566,288.482 Q205.76,289.07 203.786,289.07 Q201.602,289.07 200.027,288.314 Q198.452,287.558 197.444,286.13 Q196.436,284.702 195.953,282.665 Q195.47,280.628 195.47,278.024 Q195.47,272.354 197.717,269.645 Q199.964,266.936 203.954,266.936 Q205.298,266.936 206.558,267.335 Q207.818,267.734 208.805,268.679 Q209.792,269.624 210.401,271.199 Q211.01,272.774 211.01,275.168 Q211.01,276.092 210.905,277.142 Q210.8,278.192 210.59,279.41 L200.384,279.41 Q200.468,282.014 201.476,283.4 Q202.484,284.786 204.71,284.786 Q206.054,284.786 207.167,284.366 Q208.28,283.946 208.868,283.484 z M203.87,271.22 Q202.274,271.22 201.476,272.501 Q200.678,273.782 200.552,276.092 L206.348,276.092 Q206.474,273.698 205.844,272.459 Q205.214,271.22 203.87,271.22 z" fill="#FFFFFF"/>
    <path d="M212.732,267.524 L215,267.524 L215,266.348 Q215,262.358 216.491,260.573 Q217.982,258.788 220.754,258.788 Q223.526,258.788 225.374,259.544 L224.45,263.786 Q223.694,263.492 223.106,263.429 Q222.518,263.366 221.888,263.366 Q220.67,263.366 220.334,264.311 Q219.998,265.256 219.998,267.524 L223.568,267.524 L223.568,271.976 L219.998,271.976 L219.998,288.524 L215,288.524 L215,271.976 L212.732,271.976 z" fill="#FFFFFF"/>
    <path d="M225.458,268.784 Q226.718,268.028 228.608,267.566 Q230.498,267.104 232.892,267.104 Q236.462,267.104 237.869,268.952 Q239.276,270.8 239.276,274.202 Q239.276,276.176 239.171,278.087 Q239.066,279.998 239.024,281.825 Q238.982,283.652 239.087,285.353 Q239.192,287.054 239.654,288.566 L235.58,288.566 L234.782,286.004 L234.614,286.004 Q233.942,287.222 232.724,288.02 Q231.506,288.818 229.658,288.818 Q227.18,288.818 225.752,287.159 Q224.324,285.5 224.324,282.728 Q224.324,278.948 227.012,277.352 Q229.7,275.756 234.278,276.008 Q234.488,273.572 233.963,272.48 Q233.438,271.388 231.716,271.388 Q230.456,271.388 229.112,271.682 Q227.768,271.976 226.718,272.522 z M231.464,284.534 Q232.598,284.534 233.312,283.967 Q234.026,283.4 234.362,282.728 L234.362,279.242 Q233.396,279.116 232.514,279.2 Q231.632,279.284 230.96,279.578 Q230.288,279.872 229.889,280.439 Q229.49,281.006 229.49,281.888 Q229.49,283.19 230.015,283.862 Q230.54,284.534 231.464,284.534 z" fill="#FFFFFF"/>
    <path d="M253.178,288.524 L253.178,275.756 Q253.178,273.446 252.632,272.522 Q252.086,271.598 250.784,271.598 Q249.692,271.598 248.894,272.27 Q248.096,272.942 247.76,273.95 L247.76,288.524 L242.762,288.524 L242.762,267.524 L246.752,267.524 L247.34,269.96 L247.466,269.96 Q248.222,268.742 249.524,267.881 Q250.826,267.02 252.926,267.02 Q254.186,267.02 255.173,267.398 Q256.16,267.776 256.832,268.637 Q257.504,269.498 257.84,270.947 Q258.176,272.396 258.176,274.538 L258.176,288.524 z" fill="#FFFFFF"/>
    <path d="M259.982,267.524 L262.292,267.524 L262.292,263.576 L267.29,262.022 L267.29,267.524 L271.364,267.524 L271.364,271.976 L267.29,271.976 L267.29,281.132 Q267.29,282.938 267.647,283.694 Q268.004,284.45 268.928,284.45 Q269.558,284.45 270.062,284.324 Q270.566,284.198 271.154,283.946 L271.784,287.936 Q270.86,288.398 269.642,288.713 Q268.424,289.028 267.08,289.028 Q264.686,289.028 263.489,287.642 Q262.292,286.256 262.292,282.98 L262.292,271.976 L259.982,271.976 z" fill="#FFFFFF"/>
    <path d="M167.855,297.324 L169.43,297.324 L169.43,312.024 L167.855,312.024 z" fill="#FFFFFF"/>
    <path d="M177.704,312.024 L177.704,305.619 Q177.704,304.044 177.337,303.341 Q176.969,302.637 176.024,302.637 Q175.184,302.637 174.638,303.141 Q174.092,303.645 173.84,304.38 L173.84,312.024 L172.328,312.024 L172.328,301.524 L173.42,301.524 L173.693,302.637 L173.756,302.637 Q174.155,302.07 174.838,301.671 Q175.52,301.272 176.465,301.272 Q177.137,301.272 177.652,301.461 Q178.166,301.65 178.513,302.102 Q178.859,302.553 179.038,303.309 Q179.216,304.065 179.216,305.22 L179.216,312.024 z" fill="#FFFFFF"/>
    <path d="M188.162,308.412 Q188.162,309.483 188.183,310.355 Q188.204,311.226 188.33,312.066 L187.301,312.066 L186.965,310.806 L186.881,310.806 Q186.587,311.436 185.957,311.856 Q185.327,312.276 184.445,312.276 Q182.744,312.276 181.915,310.953 Q181.085,309.63 181.085,306.795 Q181.085,304.107 182.104,302.721 Q183.122,301.335 184.907,301.335 Q185.516,301.335 185.873,301.409 Q186.23,301.482 186.65,301.65 L186.65,297.324 L188.162,297.324 z M186.65,303.183 Q186.356,302.931 185.989,302.816 Q185.621,302.7 185.012,302.7 Q183.899,302.7 183.28,303.708 Q182.66,304.716 182.66,306.816 Q182.66,307.74 182.776,308.486 Q182.891,309.231 183.133,309.777 Q183.374,310.323 183.763,310.617 Q184.151,310.911 184.718,310.911 Q186.23,310.911 186.65,309.126 z" fill="#FFFFFF"/>
    <path d="M192.005,301.524 L192.005,307.95 Q192.005,309.546 192.331,310.229 Q192.656,310.911 193.517,310.911 Q193.958,310.911 194.305,310.733 Q194.651,310.554 194.924,310.26 Q195.197,309.966 195.407,309.588 Q195.617,309.21 195.743,308.811 L195.743,301.524 L197.255,301.524 L197.255,309.042 Q197.255,309.798 197.308,310.607 Q197.36,311.415 197.465,312.024 L196.394,312.024 L196.016,310.554 L195.953,310.554 Q195.596,311.247 194.924,311.762 Q194.252,312.276 193.244,312.276 Q192.572,312.276 192.068,312.108 Q191.564,311.94 191.207,311.499 Q190.85,311.058 190.672,310.292 Q190.493,309.525 190.493,308.328 L190.493,301.524 z" fill="#FFFFFF"/>
    <path d="M199.586,310.302 Q200.006,310.554 200.584,310.733 Q201.161,310.911 201.77,310.911 Q202.463,310.911 202.946,310.565 Q203.429,310.218 203.429,309.441 Q203.429,308.79 203.135,308.37 Q202.841,307.95 202.39,307.614 Q201.938,307.278 201.413,306.995 Q200.888,306.711 200.437,306.312 Q199.985,305.913 199.691,305.367 Q199.397,304.821 199.397,303.981 Q199.397,302.637 200.122,301.955 Q200.846,301.272 202.169,301.272 Q203.03,301.272 203.66,301.43 Q204.29,301.587 204.752,301.86 L204.353,303.12 Q203.954,302.91 203.429,302.774 Q202.904,302.637 202.358,302.637 Q201.602,302.637 201.256,302.952 Q200.909,303.267 200.909,303.939 Q200.909,304.464 201.203,304.832 Q201.497,305.199 201.949,305.504 Q202.4,305.808 202.925,306.123 Q203.45,306.438 203.902,306.869 Q204.353,307.299 204.647,307.898 Q204.941,308.496 204.941,309.399 Q204.941,309.987 204.752,310.512 Q204.563,311.037 204.175,311.426 Q203.786,311.814 203.209,312.045 Q202.631,312.276 201.854,312.276 Q200.93,312.276 200.258,312.098 Q199.586,311.919 199.124,311.625 z" fill="#FFFFFF"/>
    <path d="M205.802,301.524 L207.083,301.524 L207.083,299.445 L208.595,298.962 L208.595,301.524 L210.863,301.524 L210.863,302.889 L208.595,302.889 L208.595,309.147 Q208.595,310.071 208.816,310.481 Q209.036,310.89 209.54,310.89 Q209.96,310.89 210.265,310.796 Q210.569,310.701 210.926,310.554 L211.22,311.751 Q210.758,311.982 210.202,312.119 Q209.645,312.255 209.036,312.255 Q207.986,312.255 207.535,311.573 Q207.083,310.89 207.083,309.357 L207.083,302.889 L205.802,302.889 z" fill="#FFFFFF"/>
    <path d="M212.627,301.524 L213.698,301.524 L213.971,302.637 L214.034,302.637 Q214.328,302.028 214.801,301.682 Q215.273,301.335 215.945,301.335 Q216.428,301.335 217.037,301.524 L216.743,303.057 Q216.197,302.868 215.777,302.868 Q215.105,302.868 214.685,303.257 Q214.265,303.645 214.139,304.296 L214.139,312.024 L212.627,312.024 z" fill="#FFFFFF"/>
    <path d="M218.633,301.524 L220.145,301.524 L220.145,312.024 L218.633,312.024 z M218.36,298.332 Q218.36,297.828 218.644,297.513 Q218.927,297.198 219.389,297.198 Q219.851,297.198 220.156,297.503 Q220.46,297.807 220.46,298.332 Q220.46,298.836 220.156,299.12 Q219.851,299.403 219.389,299.403 Q218.927,299.403 218.644,299.109 Q218.36,298.815 218.36,298.332 z" fill="#FFFFFF"/>
    <path d="M229.217,311.31 Q228.713,311.772 227.936,312.024 Q227.159,312.276 226.298,312.276 Q225.311,312.276 224.587,311.888 Q223.862,311.499 223.39,310.775 Q222.917,310.05 222.697,309.042 Q222.476,308.034 222.476,306.774 Q222.476,304.086 223.463,302.679 Q224.45,301.272 226.256,301.272 Q226.844,301.272 227.422,301.419 Q227.999,301.566 228.461,302.007 Q228.923,302.448 229.207,303.246 Q229.49,304.044 229.49,305.325 Q229.49,305.682 229.459,306.092 Q229.427,306.501 229.385,306.942 L224.051,306.942 Q224.051,307.845 224.198,308.58 Q224.345,309.315 224.66,309.83 Q224.975,310.344 225.469,310.628 Q225.962,310.911 226.697,310.911 Q227.264,310.911 227.821,310.701 Q228.377,310.491 228.671,310.197 z M228.041,305.682 Q228.083,304.107 227.6,303.372 Q227.117,302.637 226.277,302.637 Q225.311,302.637 224.744,303.372 Q224.177,304.107 224.072,305.682 z" fill="#FFFFFF"/>
    <path d="M231.443,310.302 Q231.863,310.554 232.441,310.733 Q233.018,310.911 233.627,310.911 Q234.32,310.911 234.803,310.565 Q235.286,310.218 235.286,309.441 Q235.286,308.79 234.992,308.37 Q234.698,307.95 234.247,307.614 Q233.795,307.278 233.27,306.995 Q232.745,306.711 232.294,306.312 Q231.842,305.913 231.548,305.367 Q231.254,304.821 231.254,303.981 Q231.254,302.637 231.979,301.955 Q232.703,301.272 234.026,301.272 Q234.887,301.272 235.517,301.43 Q236.147,301.587 236.609,301.86 L236.21,303.12 Q235.811,302.91 235.286,302.774 Q234.761,302.637 234.215,302.637 Q233.459,302.637 233.113,302.952 Q232.766,303.267 232.766,303.939 Q232.766,304.464 233.06,304.832 Q233.354,305.199 233.806,305.504 Q234.257,305.808 234.782,306.123 Q235.307,306.438 235.759,306.869 Q236.21,307.299 236.504,307.898 Q236.798,308.496 236.798,309.399 Q236.798,309.987 236.609,310.512 Q236.42,311.037 236.032,311.426 Q235.643,311.814 235.066,312.045 Q234.488,312.276 233.711,312.276 Q232.787,312.276 232.115,312.098 Q231.443,311.919 230.981,311.625 z" fill="#FFFFFF"/>
  </g>
</svg>
