<?xml version="1.0" encoding="UTF-8"?>
<!DOCTYPE svg PUBLIC "-//W3C//DTD SVG 1.1//EN" "http://www.w3.org/Graphics/SVG/1.1/DTD/svg11.dtd">
<svg version="1.1" xmlns="http://www.w3.org/2000/svg" xmlns:xlink="http://www.w3.org/1999/xlink" x="0" y="0" width="167.907" height="197.565" viewBox="0, 0, 167.907, 197.565">
  <defs>
    <pattern id="Pattern_1" patternUnits="userSpaceOnUse" x="123.046" y="170.326" width="40" height="40" patternTransform="matrix(0.5, 0, 0, 0.5, 0, 0)">
      <g transform="translate(-0, -0)">
        <path d="M0,0 L40,0 L40,40 L0,40 L0,0 z" fill="#CEE094"/>
        <path d="M0,20 L20,20 L20,0 L0,20 z" fill="#004068"/>
        <path d="M40,0 L20,0 L20,20 L40,0 z" fill="#2B8185"/>
        <path d="M20,20 L40,20 L40,0 L20,20 z" fill="#6BB890"/>
        <path d="M20,20 L0,20 L0,40 L20,20 z" fill="#2B8185"/>
        <path d="M0,40 L20,40 L20,20 L0,40 z" fill="#6BB890"/>
        <path d="M20,40 L40,40 L40,20 L20,40 z" fill="#004068"/>
      </g>
    </pattern>
  </defs>
  <g id="Layer_1" transform="translate(-118.046, -120.066)">
    <path d="M122.283,254.326 L281.904,254.326 L281.904,317.631 L122.283,317.631 L122.283,254.326 z" fill="#000000"/>
    <path d="M122.187,120.066 L282,120.066 L282,254.326 L122.187,254.326 L122.187,120.066 z" fill="#FFFFFF" fill-opacity="0.604"/>
    <g>
      <path d="M232.953,170.326 C232.953,170.326 281.078,189.93 280.953,210.326 C280.819,232.32 280.953,254.326 280.953,254.326 L123.229,254.326 C123.229,254.326 122.819,246.32 123.229,210.326 C123.482,188.088 172.953,170.326 172.953,170.326 L232.953,170.326 z" fill="url(#Pattern_1)"/>
      <path d="M232.953,170.326 C232.953,170.326 281.078,189.93 280.953,210.326 C280.819,232.32 280.953,254.326 280.953,254.326 L123.229,254.326 C123.229,254.326 122.819,246.32 123.229,210.326 C123.482,188.088 172.953,170.326 172.953,170.326 L232.953,170.326 z" fill-opacity="0" stroke="#000000" stroke-width="2"/>
    </g>
    <g>
      <path d="M202.896,234.391 C199.582,234.391 196.896,231.821 196.896,228.649 C196.896,225.478 199.582,222.907 202.896,222.907 C206.209,222.907 208.896,225.478 208.896,228.649 C208.896,231.821 206.209,234.391 202.896,234.391 z" fill="#FFFFFF"/>
      <path d="M201.396,226.891 L205.396,231.28" fill-opacity="0" stroke="#000000" stroke-width="1"/>
      <path d="M205.396,226.891 L201.396,231.28" fill-opacity="0" stroke="#000000" stroke-width="1"/>
    </g>
    <g>
      <g>
        <path d="M193.001,141.612 C193.001,141.612 182.186,196.361 182.186,196.361 C182.186,196.361 170.68,202.513 163.261,200.659 C152.446,197.955 133.521,173.622 136.225,168.215 C138.928,162.808 152.446,136.205 168.668,133.501 C184.89,130.798 193.001,141.612 193.001,141.612 z" fill="#C5C5C5"/>
        <path d="M193.001,141.612 C193.001,141.612 182.186,196.361 182.186,196.361 C182.186,196.361 170.68,202.513 163.261,200.659 C152.446,197.955 133.521,173.622 136.225,168.215 C138.928,162.808 152.446,136.205 168.668,133.501 C184.89,130.798 193.001,141.612 193.001,141.612 z" fill-opacity="0" stroke="#000000" stroke-width="2"/>
      </g>
      <g>
        <path d="M211.665,141.612 C211.665,141.612 222.48,196.361 222.48,196.361 C222.48,196.361 233.987,202.513 241.406,200.659 C252.22,197.955 271.146,173.622 268.442,168.215 C265.739,162.808 252.22,136.205 235.998,133.501 C219.776,130.798 211.665,141.612 211.665,141.612 z" fill="#C5C5C5"/>
        <path d="M211.665,141.612 C211.665,141.612 222.48,196.361 222.48,196.361 C222.48,196.361 233.987,202.513 241.406,200.659 C252.22,197.955 271.146,173.622 268.442,168.215 C265.739,162.808 252.22,136.205 235.998,133.501 C219.776,130.798 211.665,141.612 211.665,141.612 z" fill-opacity="0" stroke="#000000" stroke-width="2"/>
      </g>
      <g>
        <path d="M217.073,199.388 C217.073,199.388 237.164,215.332 237.164,215.332 C237.164,215.332 231.28,195.927 231.28,195.927 C231.28,195.927 217.073,199.388 217.073,199.388 z" fill="#FFFFFF"/>
        <path d="M217.073,199.388 C217.073,199.388 237.164,215.332 237.164,215.332 C237.164,215.332 231.28,195.927 231.28,195.927 C231.28,195.927 217.073,199.388 217.073,199.388 z" fill-opacity="0" stroke="#000000" stroke-width="2" stroke-linecap="round" stroke-linejoin="round"/>
      </g>
      <g>
        <path d="M188.773,199.388 C188.773,199.388 168.681,215.332 168.681,215.332 C168.681,215.332 174.566,195.927 174.566,195.927 C174.566,195.927 188.773,199.388 188.773,199.388 z" fill="#FFFFFF"/>
        <path d="M188.773,199.388 C188.773,199.388 168.681,215.332 168.681,215.332 C168.681,215.332 174.566,195.927 174.566,195.927 C174.566,195.927 188.773,199.388 188.773,199.388 z" fill-opacity="0" stroke="#000000" stroke-width="2" stroke-linecap="round" stroke-linejoin="round"/>
      </g>
      <g>
        <path d="M154.889,184.441 C171.111,119.548 244.109,119.548 252.22,184.441 C211.665,192.552 211.665,249.328 211.665,249.328 C211.665,249.328 195.444,249.328 195.444,249.328 C195.444,249.328 195.444,192.552 154.889,184.441 z" fill="#D3D3D3"/>
        <path d="M154.889,184.441 C171.111,119.548 244.109,119.548 252.22,184.441 C211.665,192.552 211.665,249.328 211.665,249.328 C211.665,249.328 195.444,249.328 195.444,249.328 C195.444,249.328 195.444,192.552 154.889,184.441 z" fill-opacity="0" stroke="#000000" stroke-width="2" stroke-linecap="round" stroke-linejoin="round"/>
      </g>
      <g>
        <path d="M195.444,170.919 L195.444,170.919 L195.444,179.03 L195.444,179.03 L195.444,170.919 z" fill="#FFFFFF"/>
        <path d="M195.444,170.919 L195.444,170.919 L195.444,179.03 L195.444,179.03 L195.444,170.919 z" fill-opacity="0" stroke="#000000" stroke-width="2" stroke-linecap="round" stroke-linejoin="round"/>
      </g>
      <g>
        <path d="M214.369,170.919 L214.369,170.919 L214.369,179.03 L214.369,179.03 L214.369,170.919 z" fill="#FFFFFF"/>
        <path d="M214.369,170.919 L214.369,170.919 L214.369,179.03 L214.369,179.03 L214.369,170.919 z" fill-opacity="0" stroke="#000000" stroke-width="2" stroke-linecap="round" stroke-linejoin="round"/>
      </g>
    </g>
    <text transform="matrix(1, 0, 0, 1, 201.833, 281.275)">
      <tspan x="-70.203" y="7.249" font-family="PTSans-NarrowBold" font-size="42" fill="#FFFFFF">Irrelefant </tspan>
      <tspan x="-35.637" y="30.749" font-family="PTSans-Narrow" font-size="21" fill="#FFFFFF">Industries</tspan>
    </text>
  </g>
</svg>
