<?xml version="1.0" encoding="UTF-8"?>
<!DOCTYPE svg PUBLIC "-//W3C//DTD SVG 1.1//EN" "http://www.w3.org/Graphics/SVG/1.1/DTD/svg11.dtd">
<svg version="1.1" xmlns="http://www.w3.org/2000/svg" xmlns:xlink="http://www.w3.org/1999/xlink" x="0" y="0" width="167.907" height="197.565" viewBox="0, 0, 167.907, 197.565">
  <defs>
    <pattern id="Pattern_1" patternUnits="userSpaceOnUse" x="29.046" y="316.694" width="40" height="40" patternTransform="matrix(0.5, 0, 0, 0.5, 0, 0)">
      <g transform="translate(-0, -0)">
        <path d="M0,0 L40,0 L40,40 L0,40 L0,0 z" fill="#CEE094"/>
        <path d="M0,20 L20,20 L20,0 L0,20 z" fill="#004068"/>
        <path d="M40,0 L20,0 L20,20 L40,0 z" fill="#2B8185"/>
        <path d="M20,20 L40,20 L40,0 L20,20 z" fill="#6BB890"/>
        <path d="M20,20 L0,20 L0,40 L20,20 z" fill="#2B8185"/>
        <path d="M0,40 L20,40 L20,20 L0,40 z" fill="#6BB890"/>
        <path d="M20,40 L40,40 L40,20 L20,40 z" fill="#004068"/>
      </g>
    </pattern>
  </defs>
  <g id="Layer_1" transform="translate(-24.046, -266.435)">
    <g>
      <path d="M28.313,400.694 L187.933,400.694 L187.933,464 L28.313,464 L28.313,400.694 z" fill="#000000"/>
      <path d="M28.187,266.435 L188,266.435 L188,400.694 L28.187,400.694 L28.187,266.435 z" fill="#FFFFFF" fill-opacity="0.604"/>
      <g>
        <path d="M138.953,316.694 C138.953,316.694 187.078,336.299 186.953,356.694 C186.819,378.689 186.953,400.694 186.953,400.694 L29.229,400.694 C29.229,400.694 28.819,392.689 29.229,356.694 C29.482,334.457 78.953,316.694 78.953,316.694 L138.953,316.694 z" fill="url(#Pattern_1)"/>
        <path d="M138.953,316.694 C138.953,316.694 187.078,336.299 186.953,356.694 C186.819,378.689 186.953,400.694 186.953,400.694 L29.229,400.694 C29.229,400.694 28.819,392.689 29.229,356.694 C29.482,334.457 78.953,316.694 78.953,316.694 L138.953,316.694 z" fill-opacity="0" stroke="#000000" stroke-width="2"/>
      </g>
      <g>
        <path d="M108.896,380.76 C105.582,380.76 102.896,378.189 102.896,375.018 C102.896,371.847 105.582,369.276 108.896,369.276 C112.209,369.276 114.896,371.847 114.896,375.018 C114.896,378.189 112.209,380.76 108.896,380.76 z" fill="#FFFFFF"/>
        <path d="M107.396,373.26 L111.396,377.648" fill-opacity="0" stroke="#000000" stroke-width="1"/>
        <path d="M111.396,373.26 L107.396,377.648" fill-opacity="0" stroke="#000000" stroke-width="1"/>
      </g>
      <g>
        <path d="M108.896,399.043 C105.582,399.043 102.896,396.472 102.896,393.301 C102.896,390.13 105.582,387.559 108.896,387.559 C112.209,387.559 114.896,390.13 114.896,393.301 C114.896,396.472 112.209,399.043 108.896,399.043 z" fill="#FFFFFF"/>
        <path d="M107.396,391.543 L111.396,395.931" fill-opacity="0" stroke="#000000" stroke-width="1"/>
        <path d="M111.396,391.543 L107.396,395.931" fill-opacity="0" stroke="#000000" stroke-width="1"/>
      </g>
      <g>
        <g>
          <path d="M99.201,281.867 C99.201,281.867 88.386,336.615 88.386,336.615 C88.386,336.615 76.88,342.768 69.461,340.913 C58.646,338.209 39.721,313.877 42.425,308.469 C45.128,303.062 58.646,276.459 74.868,273.756 C91.09,271.052 99.201,281.867 99.201,281.867 z" fill="#C5C5C5"/>
          <path d="M99.201,281.867 C99.201,281.867 88.386,336.615 88.386,336.615 C88.386,336.615 76.88,342.768 69.461,340.913 C58.646,338.209 39.721,313.877 42.425,308.469 C45.128,303.062 58.646,276.459 74.868,273.756 C91.09,271.052 99.201,281.867 99.201,281.867 z" fill-opacity="0" stroke="#000000" stroke-width="2"/>
        </g>
        <g>
          <path d="M117.866,281.867 C117.866,281.867 128.68,336.615 128.68,336.615 C128.68,336.615 140.187,342.768 147.606,340.913 C158.42,338.209 177.346,313.877 174.642,308.469 C171.939,303.062 158.42,276.459 142.198,273.756 C125.976,271.052 117.866,281.867 117.866,281.867 z" fill="#C5C5C5"/>
          <path d="M117.866,281.867 C117.866,281.867 128.68,336.615 128.68,336.615 C128.68,336.615 140.187,342.768 147.606,340.913 C158.42,338.209 177.346,313.877 174.642,308.469 C171.939,303.062 158.42,276.459 142.198,273.756 C125.976,271.052 117.866,281.867 117.866,281.867 z" fill-opacity="0" stroke="#000000" stroke-width="2"/>
        </g>
        <g>
          <path d="M123.273,339.642 C123.273,339.642 143.364,355.586 143.364,355.586 C143.364,355.586 137.48,336.182 137.48,336.182 C137.48,336.182 123.273,339.642 123.273,339.642 z" fill="#FFFFFF"/>
          <path d="M123.273,339.642 C123.273,339.642 143.364,355.586 143.364,355.586 C143.364,355.586 137.48,336.182 137.48,336.182 C137.48,336.182 123.273,339.642 123.273,339.642 z" fill-opacity="0" stroke="#000000" stroke-width="2" stroke-linecap="round" stroke-linejoin="round"/>
        </g>
        <g>
          <path d="M97.402,339.642 C97.402,339.642 77.311,355.586 77.311,355.586 C77.311,355.586 83.195,336.182 83.195,336.182 C83.195,336.182 97.402,339.642 97.402,339.642 z" fill="#FFFFFF"/>
          <path d="M97.402,339.642 C97.402,339.642 77.311,355.586 77.311,355.586 C77.311,355.586 83.195,336.182 83.195,336.182 C83.195,336.182 97.402,339.642 97.402,339.642 z" fill-opacity="0" stroke="#000000" stroke-width="2" stroke-linecap="round" stroke-linejoin="round"/>
        </g>
        <g>
          <path d="M61.089,324.695 C77.311,259.802 150.309,259.802 158.42,324.695 C117.866,332.806 117.866,389.583 117.866,389.583 C117.866,389.583 101.644,389.583 101.644,389.583 C101.644,389.583 101.644,332.806 61.089,324.695 z" fill="#D3D3D3"/>
          <path d="M61.089,324.695 C77.311,259.802 150.309,259.802 158.42,324.695 C117.866,332.806 117.866,389.583 117.866,389.583 C117.866,389.583 101.644,389.583 101.644,389.583 C101.644,389.583 101.644,332.806 61.089,324.695 z" fill-opacity="0" stroke="#000000" stroke-width="2" stroke-linecap="round" stroke-linejoin="round"/>
        </g>
        <g>
          <path d="M101.644,311.173 L101.644,311.173 L101.644,319.284 L101.644,319.284 L101.644,311.173 z" fill="#FFFFFF"/>
          <path d="M101.644,311.173 L101.644,311.173 L101.644,319.284 L101.644,319.284 L101.644,311.173 z" fill-opacity="0" stroke="#000000" stroke-width="2" stroke-linecap="round" stroke-linejoin="round"/>
        </g>
        <g>
          <path d="M120.569,311.173 L120.569,311.173 L120.569,319.284 L120.569,319.284 L120.569,311.173 z" fill="#FFFFFF"/>
          <path d="M120.569,311.173 L120.569,311.173 L120.569,319.284 L120.569,319.284 L120.569,311.173 z" fill-opacity="0" stroke="#000000" stroke-width="2" stroke-linecap="round" stroke-linejoin="round"/>
        </g>
      </g>
      <text transform="matrix(1, 0, 0, 1, 107.833, 425.432)">
        <tspan x="-70.203" y="9.461" font-family="PTSans-NarrowBold" font-size="42" fill="#FFFFFF">Irrelefant </tspan>
        <tspan x="-24.605" y="30.961" font-family="PTSans-NarrowBold" font-size="14" fill="#FFFFFF">Industries</tspan>
      </text>
    </g>
  </g>
</svg>
